# xmcd
#
# Track frame offsets:
# 150
# 18722
# 36831
# 53366
# 69052
# 80054
# 101213
# 118856
# 139842
# 159892
# 176751
# 189664
# 209640
# 226714
# 255650
# 273848
# 287159
#
# Disc length: 3924 seconds
#
#
# Revision: 0
# Processed by: cddbd v1.5.1PL2 Copyright (c) Steve Scherf et al.
# Submitted via: FreeRIP 2.35 
#
DISCID=f00f5211
DTITLE=Grupo Acaba - 
DYEAR=1900
DGENRE=
TTITLE0=O Rancho do Jaú
TTITLE1=Cururú de Santa Fé
TTITLE2=Filhos do Sol
TTITLE3=Vale dos Ossos
TTITLE4=Boi de Carro
TTITLE5=Sinfonia do Boi
TTITLE6=Rodada de Siriri - Cururu
TTITLE7=Última Cheia
TTITLE8=Mistérios da Fé
TTITLE9=Terra Molhada
TTITLE10=Vazante Correntina
TTITLE11=Kananciuê
TTITLE12=As Monções
TTITLE13=Ciranda Pantaneira
TTITLE14=Los Hermanos
TTITLE15=Lambari na Cunha
TTITLE16=Cantigas de Siriri
EXTD=
EXTT0=
EXTT1=
EXTT2=
EXTT3=
EXTT4=
EXTT5=
EXTT6=
EXTT7=
EXTT8=
EXTT9=
EXTT10=
EXTT11=
EXTT12=
EXTT13=
EXTT14=
EXTT15=
EXTT16=
PLAYORDER=
